PathFileType	3	(X/Y/Z)	dance_move_1__fused_aligned.trc
DataRate	CameraRate	NumFrames	NumMarkers	Units	OrigDataRate	OrigDataStartFrame	OrigNumFrames
100.0	100.0	10	19	mm	100.0	361	890
Frame#	Time	pelvis			neck			head			hip_left			hip_right			knee_left			knee_right			ankle_left			ankle_right			heel_left			heel_right			toe_left			toe_right			shoulder_left			shoulder_right			elbow_left			elbow_right			wrist_left			wrist_right			
		X1	Y1	Z1	X2	Y2	Z2	X3	Y3	Z3	X4	Y4	Z4	X5	Y5	Z5	X6	Y6	Z6	X7	Y7	Z7	X8	Y8	Z8	X9	Y9	Z9	X10	Y10	Z10	X11	Y11	Z11	X12	Y12	Z12	X13	Y13	Z13	X14	Y14	Z14	X15	Y15	Z15	X16	Y16	Z16	X17	Y17	Z17	X18	Y18	Z18	X19	Y19	Z19	
361	3.60000	90.826479	719.079398	95.136599	73.645994	1182.024563	-212.388926	70.406993	1209.040094	-378.317871	15.295800	719.676630	98.812342	166.357157	718.482166	91.460863	-94.191969	461.668983	-214.779613	233.303908	470.833371	-245.006537	-114.496706	138.194779	20.299141	257.909002	119.417442	-56.968826	-111.933816	102.885641	68.900616	257.272095	82.783680	-10.007857	-149.102973	56.382352	-143.944602	284.168863	27.985521	-224.033557	-111.809671	1129.244454	-172.467491	260.232773	1138.393861	-192.976961	-97.126298	835.143399	-170.037364	257.993537	854.761018	-246.380196	-6.336527	608.300082	-230.874195	156.541280	641.610445	-344.689395
362	3.61000	90.316558	719.213119	94.285101	72.462144	1181.985155	-213.219599	69.252498	1208.902332	-379.084585	14.763427	719.699014	97.736350	165.869690	718.727225	90.833860	-92.772707	461.658718	-217.561301	233.939772	471.262804	-245.549750	-113.190103	138.557384	18.378126	257.210931	119.656643	-57.779310	-110.774881	103.329835	67.092989	256.365363	82.989136	-10.871762	-147.422308	56.596771	-145.862515	283.387370	28.287147	-224.885679	-112.917413	1128.829758	-173.268678	259.083882	1138.730255	-193.681367	-97.416722	834.633555	-170.684952	256.987099	854.970412	-247.446784	-5.246444	607.671132	-232.670992	155.842850	642.226109	-345.495560
363	3.62000	89.806638	719.346841	93.433602	71.278295	1181.945746	-214.050272	68.098002	1208.764571	-379.851300	14.231054	719.721398	96.660358	165.382223	718.972284	90.206857	-91.353446	461.648454	-220.342990	234.575635	471.692237	-246.092963	-111.883501	138.919990	16.457112	256.512860	119.895844	-58.589794	-109.615946	103.774030	65.285363	255.458630	83.194591	-11.735666	-145.741643	56.811189	-147.780428	282.605877	28.588774	-225.737800	-114.025155	1128.415063	-174.069865	257.934991	1139.066650	-194.385772	-97.707146	834.123711	-171.332540	255.980661	855.179805	-248.513372	-4.156361	607.042182	-234.467789	155.144420	642.841772	-346.301726
364	3.63000	89.296717	719.480562	92.582104	70.094445	1181.906338	-214.880945	66.943507	1208.626809	-380.618015	13.698681	719.743782	95.584366	164.894756	719.217343	89.579854	-89.934184	461.638189	-223.124679	235.211499	472.121671	-246.636176	-110.576899	139.282595	14.536097	255.814789	120.135046	-59.400279	-108.457011	104.218225	63.477736	254.551898	83.400047	-12.599570	-144.060978	57.025608	-149.698342	281.824384	28.890401	-226.589921	-115.132897	1128.000368	-174.871052	256.786101	1139.403045	-195.090178	-97.997569	833.613867	-171.980128	254.974223	855.389198	-249.579960	-3.066277	606.413231	-236.264586	154.445989	643.457435	-347.107891
365	3.64000	88.786796	719.614283	91.730606	68.910596	1181.866930	-215.711618	65.789011	1208.489047	-381.384730	13.166308	719.766166	94.508375	164.407290	719.462402	88.952851	-88.514923	461.627925	-225.906367	235.847362	472.551104	-247.179389	-109.270296	139.645201	12.615082	255.116718	120.374247	-60.210763	-107.298076	104.662420	61.670110	253.645165	83.605502	-13.463474	-142.380312	57.240026	-151.616255	281.042891	29.192027	-227.442042	-116.240639	1127.585672	-175.672240	255.637210	1139.739440	-195.794583	-98.287993	833.104022	-172.627716	253.967784	855.598591	-250.646549	-1.976194	605.784281	-238.061383	153.747559	644.073098	-347.914057
366	3.65000	88.276876	719.748005	90.879107	67.726746	1181.827522	-216.542291	64.634516	1208.351286	-382.151444	12.633936	719.788549	93.432383	163.919823	719.707461	88.325848	-87.095661	461.617660	-228.688056	236.483226	472.980537	-247.722603	-107.963694	140.007806	10.694068	254.418647	120.613448	-61.021248	-106.139141	105.106615	59.862483	252.738433	83.810958	-14.327378	-140.699647	57.454444	-153.534168	280.261398	29.493654	-228.294163	-117.348381	1127.170977	-176.473427	254.488319	1140.075835	-196.498989	-98.578416	832.594178	-173.275304	252.961346	855.807984	-251.713137	-0.886110	605.155331	-239.858181	153.049129	644.688762	-348.720223
367	3.66000	87.766955	719.881726	90.027609	66.542897	1181.788114	-217.372964	63.480021	1208.213524	-382.918159	12.101563	719.810933	92.356391	163.432356	719.952520	87.698845	-85.676400	461.607395	-231.469745	237.119089	473.409970	-248.265816	-106.657091	140.370411	8.773053	253.720576	120.852649	-61.831732	-104.980206	105.550810	58.054857	251.831700	84.016413	-15.191282	-139.018982	57.668863	-155.452081	279.479905	29.795281	-229.146284	-118.456123	1126.756282	-177.274614	253.339429	1140.412230	-197.203395	-98.868840	832.084334	-173.922892	251.954908	856.017377	-252.779725	0.203973	604.526381	-241.654978	152.350698	645.304425	-349.526388
368	3.67000	87.257034	720.015447	89.176111	65.359048	1181.748705	-218.203637	62.325525	1208.075763	-383.684874	11.569190	719.833317	91.280399	162.944889	720.197579	87.071842	-84.257139	461.597131	-234.251434	237.754953	473.839404	-248.809029	-105.350489	140.733017	6.852039	253.022505	121.091851	-62.642216	-103.821271	105.995004	56.247230	250.924967	84.221869	-16.055186	-137.338317	57.883281	-157.369994	278.698412	30.096908	-229.998405	-119.563865	1126.341587	-178.075801	252.190538	1140.748624	-197.907800	-99.159264	831.574490	-174.570479	250.948470	856.226770	-253.846313	1.294056	603.897430	-243.451775	151.652268	645.920088	-350.332554
369	3.68000	87.659749	720.609111	88.723526	65.197966	1182.228579	-218.874591	62.168669	1208.468759	-384.301648	11.815314	720.290629	90.768761	163.504179	720.927596	86.678306	-85.256912	462.384704	-234.192046	241.054145	473.738583	-247.254055	-104.830980	141.261302	5.933612	254.454216	120.812178	-61.963459	-103.042714	106.455478	55.144728	252.025760	83.816144	-15.541352	-137.468014	58.734374	-158.169696	280.264668	30.488779	-229.569881	-119.511709	1127.195741	-178.507174	251.817685	1141.545218	-198.074884	-101.433403	833.107873	-174.500144	253.056002	857.283613	-252.961847	-2.675322	604.873120	-244.597651	156.972252	646.763062	-348.770219
370	3.69000	88.062463	721.202776	88.270942	65.036884	1182.708453	-219.545545	62.011813	1208.861755	-384.918421	12.061438	720.747941	90.257122	164.063470	721.657613	86.284771	-86.256686	463.172278	-234.132658	244.353337	473.637763	-245.699081	-104.311471	141.789586	5.015186	255.885927	120.532506	-61.284701	-102.264156	106.915951	54.042227	253.126553	83.410419	-15.027518	-137.597712	59.585467	-158.969398	281.830925	30.880650	-229.141357	-119.459554	1128.049896	-178.938547	251.444833	1142.341812	-198.241967	-103.707542	834.641256	-174.429808	255.163535	858.340457	-252.077380	-6.644700	605.848810	-245.743527	162.292235	647.606037	-347.207885
